<svg width="49" height="44" viewBox="0 0 49 44" fill="none" xmlns="http://www.w3.org/2000/svg">
<g clip-path="url(#clip0_993_518)" filter="url(#filter0_d_993_518)">
<path d="M43.5886 8.52554H38.519V3.45592C38.519 2.55955 38.1629 1.6999 37.5291 1.06608C36.8953 0.432251 36.0356 0.0761719 35.1393 0.0761719H14.8608C13.9644 0.0761719 13.1048 0.432251 12.4709 1.06608C11.8371 1.6999 11.481 2.55955 11.481 3.45592V8.52554H6.41142C5.06687 8.52554 3.77739 9.05966 2.82665 10.0104C1.87592 10.9611 1.3418 12.2506 1.3418 13.5952V37.2534C1.3418 38.1497 1.69788 39.0094 2.3317 39.6432C2.96553 40.2771 3.82518 40.6331 4.72154 40.6331H45.2785C46.1749 40.6331 47.0345 40.2771 47.6683 39.6432C48.3022 39.0094 48.6582 38.1497 48.6582 37.2534V13.5952C48.6582 12.2506 48.1241 10.9611 47.1734 10.0104C46.2227 9.05966 44.9332 8.52554 43.5886 8.52554ZM14.8608 3.45592H35.1393V8.52554H14.8608V3.45592ZM45.2785 37.2534H4.72154V22.0445H18.2405V30.4939H31.7595V22.0445H45.2785V37.2534ZM21.6203 22.0445H28.3798V27.1141H21.6203V22.0445ZM4.72154 18.6648V13.5952C4.72154 13.147 4.89958 12.7172 5.2165 12.4002C5.53341 12.0833 5.96323 11.9053 6.41142 11.9053H43.5886C44.0368 11.9053 44.4666 12.0833 44.7836 12.4002C45.1005 12.7172 45.2785 13.147 45.2785 13.5952V18.6648H4.72154Z" fill="#0D5C63"/>
</g>
<defs>
<filter id="filter0_d_993_518" x="-3" y="0" width="56" height="48.709" filterUnits="userSpaceOnUse" color-interpolation-filters="sRGB">
<feFlood flood-opacity="0" result="BackgroundImageFix"/>
<feColorMatrix in="SourceAlpha" type="matrix" values="0 0 0 0 0 0 0 0 0 0 0 0 0 0 0 0 0 0 127 0" result="hardAlpha"/>
<feOffset dy="4"/>
<feGaussianBlur stdDeviation="2"/>
<feComposite in2="hardAlpha" operator="out"/>
<feColorMatrix type="matrix" values="0 0 0 0 0 0 0 0 0 0 0 0 0 0 0 0 0 0 0.25 0"/>
<feBlend mode="normal" in2="BackgroundImageFix" result="effect1_dropShadow_993_518"/>
<feBlend mode="normal" in="SourceGraphic" in2="effect1_dropShadow_993_518" result="shape"/>
</filter>
<clipPath id="clip0_993_518">
<rect width="48" height="40.7089" fill="white" transform="translate(1)"/>
</clipPath>
</defs>
</svg>
